<?xml version="1.0" encoding="UTF-8"?>
<svg xmlns="http://www.w3.org/2000/svg" viewBox="0 0 648 648">
<path d="M0 0 C213.84 0 427.68 0 648 0 C648 213.84 648 427.68 648 648 C434.16 648 220.32 648 0 648 C0 434.16 0 220.32 0 0 Z " fill="#0000FF" transform="translate(0,0)"/>
<path d="M0 0 C0.33 0 0.66 0 1 0 C1 7.92 1 15.84 1 24 C-6.92 24 -14.84 24 -23 24 C-20.59135455 22.39423636 -18.32246359 21.16123179 -15.75 19.875 C-7.5274206 15.30244365 -3.22969767 8.66602109 0 0 Z " fill="#000000" transform="translate(647,624)"/>
<path d="M0 0 C1.60576364 2.40864545 2.83876821 4.67753641 4.125 7.25 C8.69755635 15.4725794 15.33397891 19.77030233 24 23 C24 23.33 24 23.66 24 24 C16.08 24 8.16 24 0 24 C0 16.08 0 8.16 0 0 Z " fill="#000000" transform="translate(0,624)"/>
<path d="M0 0 C7.92 0 15.84 0 24 0 C24 7.92 24 15.84 24 24 C22.39423636 21.59135455 21.16123179 19.32246359 19.875 16.75 C15.30244365 8.5274206 8.66602109 4.22969767 0 1 C0 0.67 0 0.34 0 0 Z " fill="#000000" transform="translate(624,0)"/>
<path d="M0 0 C7.92 0 15.84 0 24 0 C21.59135455 1.60576364 19.32246359 2.83876821 16.75 4.125 C8.5274206 8.69755635 4.22969767 15.33397891 1 24 C0.67 24 0.34 24 0 24 C0 16.08 0 8.16 0 0 Z " fill="#000000" transform="translate(0,0)"/>
</svg>



